<svg xmlns="http://www.w3.org/2000/svg" xmlns:xlink="http://www.w3.org/1999/xlink" viewBox="0 0 280 250" preserveAspectRatio="xMidYMid" style="display: block; shape-rendering: auto; background: transparent;" width="280" height="250"><style type="text/css">
  .ld-text text {
    text-anchor: middle;
    dominant-baseline: middle;
    font-size: 55px;
    opacity: 0;
    user-select: none;
    pointer-events: none;
  }
</style>
<g style="transform-origin:140px 125px;transform:scale(1)" class="ld-text">
<g transform="translate(140,125)">
  <g transform="scale(0.6875) translate(0,0)"><g class="path" style="opacity: 1; animation: 3.7037s linear -2.13889s infinite normal forwards running animate-8cgu62be5hp; transform-box: view-box; transform-origin: -171.2px -0.04px;"><path d="M57.12 26.96L57.12 26.96Q57.12 43.44 47.84 49.92L47.84 49.92Q39.28 55.92 24.32 55.92L24.32 55.92L1.68 55.92L1.68 54.40L6.96 54.40L6.96 1.44L1.68 1.44L1.68-0.08L26.40-0.08Q41.76-0.08 49.44 6.20Q57.12 12.48 57.12 26.96 zM22.56 1.44L22.56 54.40L25.60 54.40Q33.68 54.40 37.16 48.68Q40.64 42.96 40.64 29.52L40.64 29.52L40.64 24.88Q40.64 6.88 33.76 3.20L33.76 3.20Q30.48 1.44 24.48 1.44L24.48 1.44L22.56 1.44" style="fill: rgb(103, 133, 40);" transform="translate(-200.600,-27.960)"></path></g><g class="path" style="opacity: 1; animation: 3.7037s linear -1.83333s infinite normal forwards running animate-8cgu62be5hp; transform-box: view-box; transform-origin: -116.24px -0.04px;"><path d="M62.08 1.68L62.08-0.08L103.68-0.08L104.48 15.76L103.04 15.76Q99.68 7.68 96 4.68Q92.32 1.68 85.20 1.68L85.20 1.68L82.40 1.68L82.40 26.40L85.12 26.40Q88.88 26.40 91.44 23.56Q94 20.72 95.04 15.92L95.04 15.92L96.24 15.92L96.24 39.60L94.88 39.60Q93.44 33.60 91 31.04Q88.56 28.48 84.32 28.48L84.32 28.48L82.40 28.48L82.40 54.16L85.44 54.16Q92.80 54.16 97.96 49.76Q103.12 45.36 105.04 38.48L105.04 38.48L106.64 38.48L106 55.92L62.08 55.92L62.08 54.16L66.80 54.16L66.80 1.68L62.08 1.68" style="fill: rgb(103, 133, 40);" transform="translate(-200.600,-27.960)"></path></g><g class="path" style="opacity: 1; animation: 3.7037s linear -1.52778s infinite normal forwards running animate-8cgu62be5hp; transform-box: view-box; transform-origin: -66.68px -0.08px;"><path d="M135.52 55.04L135.52 55.04Q139.52 55.04 142.60 52.88Q145.68 50.72 145.68 46.36Q145.68 42 142.36 39.68Q139.04 37.36 132.92 35.64Q126.80 33.92 124.04 32.64Q121.28 31.36 118.80 29.28L118.80 29.28Q113.84 25.12 113.84 16.40L113.84 16.40Q113.84 9.28 118.92 4.16Q124-0.96 132.80-0.96L132.80-0.96Q137.04-0.96 141.64 0.28Q146.24 1.52 147.36 1.52Q148.48 1.52 149.36-0.08L149.36-0.08L150.24-0.08L150.80 16.08L149.52 16.08Q145.68 9.12 141.48 4.92Q137.28 0.72 132.36 0.72Q127.44 0.72 124.72 3Q122 5.28 122 9.08Q122 12.88 125.24 14.92Q128.48 16.96 133.20 18.24Q137.92 19.52 139.40 20Q140.88 20.48 143.08 21.32Q145.28 22.16 146.68 23.08Q148.08 24 149.64 25.40Q151.20 26.80 152.08 28.48L152.08 28.48Q154.24 32.32 154.24 37.60L154.24 37.60Q154.24 46.24 148.84 51.48Q143.44 56.72 134.64 56.72L134.64 56.72Q130.08 56.72 124.20 55.52Q118.32 54.32 117.68 54.32L117.68 54.32Q116.56 54.32 115.52 56.72L115.52 56.72L114.40 56.72L113.60 37.68L114.96 37.68Q118.48 44.64 123.96 49.84Q129.44 55.04 135.52 55.04" style="fill: rgb(103, 133, 40);" transform="translate(-200.600,-27.960)"></path></g><g class="path" style="opacity: 1; animation: 3.7037s linear -1.22222s infinite normal forwards running animate-8cgu62be5hp; transform-box: view-box; transform-origin: -28.88px -0.04px;"><path d="M159.52 1.44L159.52-0.08L183.92-0.08L183.92 1.44L179.52 1.44L179.52 54.40L183.92 54.40L183.92 55.92L159.52 55.92L159.52 54.40L163.92 54.40L163.92 1.44L159.52 1.44" style="fill: rgb(103, 133, 40);" transform="translate(-200.600,-27.960)"></path></g><g class="path" style="opacity: 1; animation: 3.7037s linear -0.916667s infinite normal forwards running animate-8cgu62be5hp; transform-box: view-box; transform-origin: 14.56px -0.08px;"><path d="M217.12 55.12L217.12 55.12Q221.04 55.12 222.12 53.68Q223.20 52.24 223.20 48.80L223.20 48.80L223.20 33.28L218.08 33.28L218.08 31.52L241.12 31.52L241.12 33.28L238 33.28L238 55.84L236.80 55.84Q235.36 53.84 232.72 53.84L232.72 53.84Q231.60 53.84 226.04 55.28Q220.48 56.72 216.56 56.72L216.56 56.72Q203.52 56.72 196.36 49.68Q189.20 42.64 189.20 28.52Q189.20 14.40 196.68 6.72Q204.16-0.96 216.80-0.96L216.80-0.96Q221.68-0.96 226.60 0.28Q231.52 1.52 232.32 1.52Q233.12 1.52 233.52 1.16Q233.92 0.80 234.40-0.08L234.40-0.08L235.28-0.08L235.92 17.28L234.48 17.28Q230.56 9.52 226.60 5.08Q222.64 0.64 217.76 0.64L217.76 0.64Q205.52 0.64 205.52 24.56L205.52 24.56L205.52 30.88Q205.52 42.88 208.52 49Q211.52 55.12 217.12 55.12" style="fill: rgb(103, 133, 40);" transform="translate(-200.600,-27.960)"></path></g><g class="path" style="opacity: 1; animation: 3.7037s linear -0.611111s infinite normal forwards running animate-8cgu62be5hp; transform-box: view-box; transform-origin: 69.96px -0.04px;"><path d="M295.36 1.44L290.96 1.44L290.96 55.92L279.76 55.92L252.32 4.16L252.32 54.40L256.72 54.40L256.72 55.92L245.76 55.92L245.76 54.40L250.16 54.40L250.16 1.44L245.76 1.44L245.76-0.08L267.84-0.08L288.80 40.08L288.80 1.44L284.40 1.44L284.40-0.08L295.36-0.08L295.36 1.44" style="fill: rgb(103, 133, 40);" transform="translate(-200.600,-27.960)"></path></g><g class="path" style="opacity: 1; animation: 3.7037s linear -0.305556s infinite normal forwards running animate-8cgu62be5hp; transform-box: view-box; transform-origin: 120.72px -0.04px;"><path d="M299.04 1.68L299.04-0.08L340.64-0.08L341.44 15.76L340 15.76Q336.64 7.68 332.96 4.68Q329.28 1.68 322.16 1.68L322.16 1.68L319.36 1.68L319.36 26.40L322.08 26.40Q325.84 26.40 328.40 23.56Q330.96 20.72 332 15.92L332 15.92L333.20 15.92L333.20 39.60L331.84 39.60Q330.40 33.60 327.96 31.04Q325.52 28.48 321.28 28.48L321.28 28.48L319.36 28.48L319.36 54.16L322.40 54.16Q329.76 54.16 334.92 49.76Q340.08 45.36 342 38.48L342 38.48L343.60 38.48L342.96 55.92L299.04 55.92L299.04 54.16L303.76 54.16L303.76 1.68L299.04 1.68" style="fill: rgb(103, 133, 40);" transform="translate(-200.600,-27.960)"></path></g><g class="path" style="opacity: 1; animation: 3.7037s linear 0s infinite normal forwards running animate-8cgu62be5hp; transform-box: view-box; transform-origin: 175.08px 0.36px;"><path d="M373.52 27.60L373.52 27.60L369.28 27.60L369.28 54.40L374.48 54.40L374.48 55.92L348.48 55.92L348.48 54.40L353.68 54.40L353.68 1.44L348.48 1.44L348.48-0.08L372.64-0.08Q383.04-0.08 387.40 1Q391.76 2.08 393.52 3.60L393.52 3.60Q397.36 6.72 397.36 13.52Q397.36 20.32 394 23.24Q390.64 26.16 383.76 26.72L383.76 26.72L383.76 26.96Q390.24 27.84 392.80 30.80Q395.36 33.76 395.36 40.72L395.36 40.72L395.36 44.96Q395.36 49.12 395.80 50.56Q396.24 52 397.68 52Q399.12 52 399.96 50.68Q400.80 49.36 401.52 45.12L401.52 45.12L402.88 45.28Q402 52.08 399.80 54.40Q397.60 56.72 391.04 56.72Q384.48 56.72 381.72 53.64Q378.96 50.56 378.96 42.08L378.96 42.08L378.96 36.24Q378.96 31.76 377.80 29.68Q376.64 27.60 373.52 27.60 zM371.92 1.44L369.28 1.44L369.28 26.08L371.84 26.08Q376.40 26.08 378.60 23.28Q380.80 20.48 380.80 14.16L380.80 14.16L380.80 11.84Q380.80 5.52 378.68 3.48Q376.56 1.44 371.92 1.44L371.92 1.44" style="fill: rgb(103, 133, 40);" transform="translate(-200.600,-27.960)"></path></g></g><text dy="0.35em" fill="#678528" font-family="Abril Fatface" font-size="55">DESIGNER</text>
</g>
</g><style type="text/css">@keyframes animate-8cgu62be5hp { 0.00% {animation-timing-function: cubic-bezier(0.33,0.00,0.67,0.00);transform: translate(0.00px,0.00px) rotate(0.00deg) scale(1.00, 1.00) skew(0deg, 0.00deg) ;opacity: 1.00;}48.00% {transform: translate(0.00px,0.00px) rotate(0.00deg) ;opacity: 1.00;}50.00% {animation-timing-function: cubic-bezier(0.33,0.00,0.67,0.00);transform: translate(0.00px,0.00px) rotate(0.00deg) ;opacity: 0.00;}100.00% {animation-timing-function: cubic-bezier(0.33,0.00,0.67,0.00);transform: translate(0.00px,0.00px) rotate(0.00deg) ;opacity: 0.00;} }</style><!-- [ldio] generated by https://loading.io --></svg>